# xmcd CD database file
#
# Track frame offsets:
#	150
#	20350
#	47045
#	66140
#	86685
#	109620
#	128868
#	148443
#
# Disc length: 2266 seconds
#
# Revision: 4
# Processed by: cddbd v1.5.2PL0 Copyright (c) Steve Scherf et al.
# Submitted via: CDex 1.51
#
DISCID=6f08d808
DTITLE=Iommi with Glenn Hughes - The 1996 Dep Sessions
DYEAR=2004
DGENRE=Hard Rock
TTITLE0=Gone
TTITLE1=From Another World
TTITLE2=Don't You Tell Me
TTITLE3=Don't Drag The River
TTITLE4=Fine
TTITLE5=Time Is The Healer
TTITLE6=I'm Not The Same Man
TTITLE7=It Falls Through Me
EXTD=YEAR: 2004
EXTT0=
EXTT1=
EXTT2=
EXTT3=
EXTT4=
EXTT5=
EXTT6=
EXTT7=
PLAYORDER=
